<svg width="48" height="42" viewBox="0 0 48 42" fill="none" xmlns="http://www.w3.org/2000/svg">
<path d="M21.8889 34.3056H10.5556C7.91085 34.3056 6.58851 34.3056 5.57838 33.8181C4.68982 33.3894 3.96742 32.7052 3.5147 31.8637C3 30.9071 3 29.6547 3 27.15V10.1556C3 7.65089 3 6.39853 3.5147 5.44188C3.96742 4.60036 4.68982 3.9162 5.57838 3.48745C6.58851 3 7.91087 3 10.5556 3H37.9444C40.5891 3 41.9116 3 42.9217 3.48745C43.8102 3.9162 44.5327 4.60036 44.9853 5.44188C45.5 6.39853 45.5 7.65089 45.5 10.1556V18.6528M3 11.9444H45.5M38.4167 38.7778V25.3611M45.5 32.0712L31.3333 32.0694" stroke="#FF9933" stroke-width="4.47222" stroke-linecap="round" stroke-linejoin="round"/>
</svg>
