<svg width="70" height="69" viewBox="0 0 70 69" fill="none" xmlns="http://www.w3.org/2000/svg">
<path fill-rule="evenodd" clip-rule="evenodd" d="M35 68C53.7775 68 69 53.0014 69 34.5C69 15.9985 53.7775 1 35 1C16.2223 1 1 15.9985 1 34.5C1 53.0014 16.2223 68 35 68ZM37.55 24.45C37.55 23.0624 36.4083 21.9375 35 21.9375C33.5917 21.9375 32.45 23.0624 32.45 24.45V31.9875H24.8C23.3917 31.9875 22.25 33.1124 22.25 34.5C22.25 35.8876 23.3917 37.0125 24.8 37.0125H32.45V44.55C32.45 45.9376 33.5917 47.0625 35 47.0625C36.4083 47.0625 37.55 45.9376 37.55 44.55V37.0125H45.2C46.6083 37.0125 47.75 35.8876 47.75 34.5C47.75 33.1124 46.6083 31.9875 45.2 31.9875H37.55V24.45Z" fill="#FF9933" stroke="#FF9933" stroke-width="0.268889"/>
</svg>
