<svg width="72" height="69" viewBox="0 0 72 69" fill="none" xmlns="http://www.w3.org/2000/svg">
<path fill-rule="evenodd" clip-rule="evenodd" d="M36 68C55.3298 68 71 53.0014 71 34.5C71 15.9985 55.3298 1 36 1C16.67 1 1 15.9985 1 34.5C1 53.0014 16.67 68 36 68ZM38.625 24.45C38.625 23.0624 37.4497 21.9375 36 21.9375C34.5503 21.9375 33.375 23.0624 33.375 24.45V31.9875H25.5C24.0503 31.9875 22.875 33.1124 22.875 34.5C22.875 35.8876 24.0503 37.0125 25.5 37.0125H33.375V44.55C33.375 45.9376 34.5503 47.0625 36 47.0625C37.4497 47.0625 38.625 45.9376 38.625 44.55V37.0125H46.5C47.9497 37.0125 49.125 35.8876 49.125 34.5C49.125 33.1124 47.9497 31.9875 46.5 31.9875H38.625V24.45Z" fill="#FF9933" stroke="#FF9933" stroke-width="0.268889"/>
</svg>
