<svg width="52" height="56" viewBox="0 0 52 56" fill="none" xmlns="http://www.w3.org/2000/svg">
<path fill-rule="evenodd" clip-rule="evenodd" d="M25.8264 55.3719C20.7184 55.3719 15.7251 53.7482 11.478 50.706C7.23083 47.6638 3.92066 43.3399 1.96592 38.2809C0.0111781 33.222 -0.500255 27.6552 0.496264 22.2847C1.49278 16.9142 3.95246 11.981 7.56436 8.10904C11.1763 4.23709 15.7781 1.60026 20.788 0.53199C25.7978 -0.536278 30.9907 0.0119959 35.7098 2.10748C40.429 4.20296 44.4625 7.75155 47.3004 12.3045C50.1382 16.8574 51.6529 22.2102 51.6529 27.686C51.6529 35.0287 48.9319 42.0708 44.0885 47.2629C39.2451 52.455 32.676 55.3719 25.8264 55.3719ZM25.8264 4.61434C21.5698 4.61434 17.4087 5.96746 13.8694 8.50261C10.3301 11.0378 7.57167 14.641 5.94272 18.8568C4.31376 23.0726 3.88748 27.7116 4.71791 32.187C5.54835 36.6625 7.59819 40.7734 10.6081 44.0001C13.618 47.2267 17.4528 49.4241 21.6276 50.3143C25.8025 51.2045 30.1299 50.7476 34.0626 49.0014C37.9952 47.2551 41.3565 44.298 43.7214 40.5039C46.0862 36.7098 47.3485 32.2491 47.3485 27.686C47.3485 21.567 45.0809 15.6986 41.0448 11.3719C37.0086 7.04509 31.5344 4.61434 25.8264 4.61434ZM35.9547 38.5435C35.7646 38.7472 35.539 38.9089 35.2907 39.0192C35.0423 39.1294 34.7762 39.1862 34.5074 39.1862C34.2386 39.1862 33.9724 39.1294 33.7241 39.0192C33.4757 38.9089 33.2501 38.7472 33.06 38.5435L25.7941 30.7545L18.5283 38.5435C18.3408 38.7566 18.1153 38.9272 17.8651 39.0452C17.6149 39.1633 17.3452 39.2262 17.0719 39.2305C16.7987 39.2347 16.5274 39.1801 16.2742 39.0699C16.021 38.9597 15.7909 38.7961 15.5977 38.5888C15.4045 38.3816 15.2521 38.1349 15.1495 37.8633C15.0469 37.5918 14.9961 37.3009 15.0003 37.008C15.0044 36.715 15.0634 36.4259 15.1737 36.1578C15.2839 35.8898 15.4432 35.6481 15.6422 35.4473L22.908 27.6583L15.6422 19.8693C15.4432 19.6684 15.2839 19.4268 15.1737 19.1587C15.0634 18.8906 15.0044 18.6015 15.0003 18.3086C14.9961 18.0156 15.0469 17.7248 15.1495 17.4532C15.2521 17.1817 15.4045 16.935 15.5977 16.7277C15.7909 16.5205 16.021 16.3569 16.2742 16.2467C16.5274 16.1365 16.7987 16.0819 17.0719 16.0861C17.3452 16.0903 17.6149 16.1533 17.8651 16.2713C18.1153 16.3893 18.3408 16.5599 18.5283 16.7731L25.7941 24.5621L33.06 16.7731C33.2489 16.5659 33.4742 16.401 33.7229 16.2879C33.9716 16.1747 34.2388 16.1156 34.5089 16.1139C34.7791 16.1123 35.0469 16.1681 35.2968 16.2782C35.5468 16.3882 35.7739 16.5504 35.9649 16.7552C36.156 16.96 36.3073 17.2034 36.41 17.4713C36.5127 17.7392 36.5647 18.0263 36.5632 18.316C36.5616 18.6056 36.5065 18.8921 36.4009 19.1587C36.2954 19.4253 36.1415 19.6669 35.9483 19.8693L28.6825 27.6583L35.9483 35.4473C36.3316 35.8572 36.5475 36.4135 36.5487 36.9939C36.5499 37.5744 36.3363 38.1317 35.9547 38.5435Z" fill="#FB0000"/>
</svg>
