<svg width="47" height="45" viewBox="0 0 47 45" fill="none" xmlns="http://www.w3.org/2000/svg">
<path d="M19.7181 30.3014C19.2315 30.2661 18.7792 30.0505 18.4575 29.7013L10.8941 22.5002C10.7256 22.1644 10.6706 21.787 10.7367 21.42C10.8028 21.053 10.9868 20.7148 11.2633 20.4515C11.5398 20.1881 11.8952 20.0129 12.2806 19.95C12.666 19.8871 13.0624 19.9395 13.4152 20.0998L19.6425 26.0287L41.1478 5.69773C41.5005 5.53729 41.897 5.48494 42.2823 5.5479C42.6677 5.61087 43.0232 5.78602 43.2995 6.04927C43.5761 6.31252 43.7602 6.6509 43.8262 7.01781C43.8923 7.38476 43.8373 7.76217 43.6689 8.0981L20.9787 29.7013C20.657 30.0505 20.2044 30.2661 19.7181 30.3014Z" fill="#32FB00" stroke="#32FB00" stroke-width="0.000623188"/>
<path d="M23.4998 44.1035C19.4446 44.0972 15.465 43.0564 11.9755 41.0893C8.486 39.122 5.61405 36.3004 3.65848 32.9178C2.17197 30.3974 1.25324 27.6098 0.960864 24.7325C0.499446 20.5129 1.35318 16.2573 3.41554 12.4967C5.47793 8.73598 8.65766 5.63668 12.5581 3.5854C15.2053 2.1701 18.1332 1.29538 21.1552 1.01701C24.1657 0.708663 27.2107 0.986337 30.1052 1.83314C30.3634 1.88227 30.6082 1.98225 30.8235 2.12668C31.0388 2.27108 31.2201 2.45675 31.3557 2.67178C31.4913 2.88678 31.5783 3.1264 31.6111 3.37527C31.6436 3.62412 31.6214 3.87673 31.5455 4.11691C31.4697 4.35709 31.3418 4.57954 31.1704 4.76996C30.999 4.9604 30.7877 5.11465 30.5502 5.22278C30.3125 5.33094 30.0535 5.39062 29.7903 5.39799C29.5271 5.40538 29.2649 5.3603 29.0211 5.26566C26.5721 4.56456 24.0008 4.33604 21.4577 4.59355C18.9441 4.83861 16.5086 5.56527 14.2977 6.72988C12.1676 7.84869 10.2844 9.34831 8.75117 11.1465C7.17259 12.9784 5.99378 15.0917 5.28381 17.3628C4.57385 19.6339 4.34698 22.017 4.61651 24.3725C4.87389 26.7656 5.63714 29.0846 6.86032 31.1895C8.03542 33.2176 9.6105 35.0106 11.4992 36.4703C13.4232 37.9734 15.6429 39.0956 18.0282 39.7715C20.4135 40.4475 22.9164 40.6635 25.3907 40.4069C27.9043 40.1618 30.3397 39.4352 32.5507 38.2706C34.6808 37.1518 36.5639 35.6523 38.0972 33.8539C39.6757 32.0222 40.8546 29.9087 41.5645 27.6377C42.2745 25.3667 42.5014 22.9836 42.2319 20.6279C42.2069 20.3804 42.2336 20.1308 42.31 19.8932C42.3867 19.6555 42.5115 19.4344 42.6779 19.2429C42.844 19.0511 43.0482 18.8924 43.2789 18.776C43.5096 18.6594 43.762 18.5874 44.0219 18.5636C44.2818 18.5401 44.544 18.5653 44.7936 18.6382C45.0432 18.711 45.2754 18.83 45.4766 18.9882C45.678 19.1464 45.8447 19.3411 45.9669 19.5605C46.0895 19.7801 46.1651 20.0204 46.1901 20.2678C46.6492 24.4901 45.7917 28.7474 43.7246 32.5085C41.6576 36.2694 38.4726 39.3673 34.5676 41.415C31.8922 42.8884 28.919 43.8046 25.8445 44.1035C25.0629 44.1035 24.2562 44.1035 23.4998 44.1035Z" fill="#32FB00" stroke="#32FB00" stroke-width="0.000623188"/>
</svg>
