<svg width="50" height= "50" viewBox="0 0 79 83" fill="none" xmlns="http://www.w3.org/2000/svg" >
<path d="M36.4977 42.4589C42.9652 42.4585 45.2923 35.6549 45.9015 30.0662C46.6519 23.1816 43.5531 18 36.4977 18C29.4432 18 26.3429 23.1812 27.0939 30.0662C27.7036 35.6549 30.03 42.4594 36.4977 42.4589Z" fill="#FF9933"/>
<path d="M50.6397 45.291C50.8479 45.291 51.0546 45.2975 51.26 45.3095C50.9522 44.8482 50.5959 44.4414 50.179 44.1143C48.9363 43.1398 47.3268 42.8201 45.9039 42.2326C45.2113 41.9468 44.5911 41.6629 44.0088 41.3396C42.0437 43.6038 39.4812 44.7882 36.4971 44.7885C33.5139 44.7885 30.9516 43.6041 28.9867 41.3396C28.4045 41.663 27.7841 41.9468 27.0916 42.2326C25.6688 42.8202 24.0593 43.1398 22.8165 44.1143C20.6673 45.7997 20.1118 49.5912 19.6754 52.1774C19.3153 54.3124 19.0733 56.4911 19.0027 58.6596C18.948 60.3393 19.7373 60.5748 21.0749 61.0819C22.7496 61.7165 24.4788 62.1876 26.2196 62.5738C29.5816 63.3197 33.0471 63.8929 36.4977 63.9185C38.1696 63.906 39.8449 63.7643 41.5104 63.5374C40.2772 61.6603 39.554 59.3864 39.554 56.9381C39.554 50.5158 44.527 45.291 50.6397 45.291Z" fill="#FF9933"/>
<path d="M50.6397 47.6204C45.7418 47.6204 41.771 51.7922 41.771 56.9381C41.771 62.0839 45.7417 66.2558 50.6397 66.2558C55.5376 66.2558 59.5084 62.0839 59.5084 56.9381C59.5083 51.7921 55.5375 47.6204 50.6397 47.6204ZM54.5197 58.5367H52.1613V61.0144C52.1613 61.8974 51.4801 62.6132 50.6397 62.6132C49.7993 62.6132 49.118 61.8974 49.118 61.0144V58.5367H46.7597C45.9193 58.5367 45.238 57.8209 45.238 56.9379C45.238 56.055 45.9192 55.3392 46.7597 55.3392H49.118V52.8614C49.118 51.9784 49.7993 51.2627 50.6397 51.2627C51.4801 51.2627 52.1613 51.9784 52.1613 52.8614V55.3392H54.5197C55.3601 55.3392 56.0414 56.055 56.0414 56.9379C56.0413 57.821 55.3602 58.5367 54.5197 58.5367Z" fill="#FF9933"/>
</svg>
