<svg width="25" height="25" viewBox="0 0 41 49" fill="none" xmlns="http://www.w3.org/2000/svg">
<path d="M17.4977 24.4589C23.9652 24.4585 26.2923 17.6549 26.9015 12.0662C27.6519 5.18159 24.5531 0 17.4977 0C10.4432 0 7.34285 5.18119 8.09387 12.0662C8.70365 17.6549 11.03 24.4594 17.4977 24.4589Z" fill="#FF9933"/>
<path d="M31.6397 27.291C31.8479 27.291 32.0546 27.2975 32.26 27.3095C31.9522 26.8482 31.5959 26.4414 31.179 26.1143C29.9363 25.1398 28.3268 24.8201 26.9039 24.2326C26.2113 23.9468 25.5911 23.6629 25.0088 23.3396C23.0437 25.6038 20.4812 26.7882 17.4971 26.7885C14.5139 26.7885 11.9516 25.6041 9.98672 23.3396C9.40448 23.663 8.78412 23.9468 8.09164 24.2326C6.66878 24.8202 5.05935 25.1398 3.81653 26.1143C1.66727 27.7997 1.11182 31.5912 0.675412 34.1774C0.31525 36.3124 0.0732913 38.4911 0.00266982 40.6596C-0.0520412 42.3393 0.737328 42.5748 2.07486 43.0819C3.74959 43.7165 5.4788 44.1876 7.21965 44.5738C10.5816 45.3197 14.0471 45.8929 17.4977 45.9185C19.1696 45.906 20.8449 45.7643 22.5104 45.5374C21.2772 43.6603 20.554 41.3864 20.554 38.9381C20.554 32.5158 25.527 27.291 31.6397 27.291Z" fill="#FF9933"/>
<path d="M31.6397 29.6204C26.7418 29.6204 22.771 33.7922 22.771 38.9381C22.771 44.0839 26.7417 48.2558 31.6397 48.2558C36.5376 48.2558 40.5084 44.0839 40.5084 38.9381C40.5083 33.7921 36.5375 29.6204 31.6397 29.6204ZM35.5197 40.5367H33.1613V43.0144C33.1613 43.8974 32.4801 44.6132 31.6397 44.6132C30.7993 44.6132 30.118 43.8974 30.118 43.0144V40.5367H27.7597C26.9193 40.5367 26.238 39.8209 26.238 38.9379C26.238 38.055 26.9192 37.3392 27.7597 37.3392H30.118V34.8614C30.118 33.9784 30.7993 33.2627 31.6397 33.2627C32.4801 33.2627 33.1613 33.9784 33.1613 34.8614V37.3392H35.5197C36.3601 37.3392 37.0414 38.055 37.0414 38.9379C37.0413 39.821 36.3602 40.5367 35.5197 40.5367Z" fill="#FF9933"/>
</svg>
