<svg width="161" height="158" viewBox="0 0 161 158" fill="none" xmlns="http://www.w3.org/2000/svg">
<path d="M80.4999 79.0001C92.2615 79.0001 101.796 69.6431 101.796 58.1006C101.796 46.5582 92.2615 37.2012 80.4999 37.2012C68.7383 37.2012 59.2036 46.5582 59.2036 58.1006C59.2036 69.6431 68.7383 79.0001 80.4999 79.0001Z" fill="#0099DD" stroke="black" stroke-width="0.00634921"/>
<path d="M45.0303 106.8C48.55 92.203 63.3124 84.2251 78.5971 84.2251H82.4027C97.6876 84.2251 112.45 92.203 115.969 106.8C116.65 109.624 117.192 112.579 117.496 115.583C117.788 118.454 115.385 120.799 112.444 120.799H48.5555C45.6151 120.799 43.2123 118.454 43.5034 115.583C43.808 112.579 44.3493 109.624 45.0303 106.8Z" fill="#0099DD" stroke="black" stroke-width="0.00634921"/>
</svg>
