<svg width="52" height="54" viewBox="0 0 52 54" fill="none" xmlns="http://www.w3.org/2000/svg">
<path fill-rule="evenodd" clip-rule="evenodd" d="M19.977 5.40553C19.977 5.40553 15.0462 5.41347 10.476 5.42142C4.68655 5.43334 0 10.3228 0 16.3488V42.2368C0 45.1355 1.10485 47.915 3.07412 49.9634C5.04147 52.0138 7.71105 53.1641 10.4951 53.1641H35.3075C41.1046 53.1641 45.8026 48.2726 45.8026 42.2368C45.8026 37.4585 45.8026 32.2948 45.8026 32.2948C45.8026 30.6498 44.5203 29.3146 42.9403 29.3146C41.3622 29.3146 40.078 30.6498 40.078 32.2948V42.2368C40.078 44.9805 37.9427 47.2037 35.3075 47.2037H10.4951C9.22998 47.2037 8.01636 46.6812 7.12142 45.7494C6.22647 44.8176 5.72461 43.554 5.72461 42.2368V16.3488C5.72461 13.609 7.85607 11.3878 10.4875 11.3818C15.0557 11.3739 19.9884 11.3659 19.9884 11.3659C21.5684 11.3619 22.8469 10.0248 22.845 8.37976C22.8431 6.73469 21.557 5.40155 19.977 5.40553Z" fill="#FF9933"/>
<path fill-rule="evenodd" clip-rule="evenodd" d="M33.4888 7.29055L20.4272 20.8922C20.1658 21.1643 19.9845 21.51 19.9101 21.8875L17.8473 32.1235C17.7156 32.7772 17.9084 33.4567 18.3587 33.9295C18.8109 34.4044 19.4597 34.611 20.0894 34.4799L30.0006 32.4176C30.3689 32.3401 30.7086 32.1513 30.9757 31.8732L44.0374 18.2736L33.4888 7.29055ZM36.189 4.48122L46.7356 15.4642L48.8575 13.2569C51.7694 10.2231 51.7694 5.30773 48.8575 2.27588C48.8556 2.27588 48.8556 2.27389 48.8556 2.27389C45.9418 -0.757963 41.2209 -0.757963 38.309 2.27389L36.189 4.48122Z" fill="#FF9933"/>
</svg>
