<svg width="43" height="47" viewBox="0 0 43 47" fill="none" xmlns="http://www.w3.org/2000/svg">
<path d="M2.54834 9.2863H40.4516M30.9758 9.2863L30.3347 7.36287C29.7133 5.49894 29.4025 4.56697 28.8264 3.87793C28.3176 3.26947 27.6642 2.7985 26.926 2.50821C26.09 2.17944 25.1079 2.17944 23.1431 2.17944H19.8568C17.892 2.17944 16.9099 2.17944 16.0739 2.50821C15.3358 2.7985 14.6823 3.26947 14.1735 3.87793C13.5972 4.56697 13.2866 5.49894 12.6653 7.36287L12.0241 9.2863M35.7137 9.2863V33.4496C35.7137 37.4299 35.7137 39.4198 34.939 40.9402C34.2577 42.2775 33.1706 43.3646 31.8333 44.0459C30.3129 44.8206 28.323 44.8206 24.3427 44.8206H18.6572C14.677 44.8206 12.6869 44.8206 11.1667 44.0459C9.82941 43.3646 8.7422 42.2775 8.06084 40.9402C7.28624 39.4198 7.28624 37.4299 7.28624 33.4496V9.2863M26.2379 18.7621V35.3448M16.762 18.7621V35.3448" stroke="#FB0000" stroke-width="4.26411" stroke-linecap="round" stroke-linejoin="round"/>
</svg>
