<svg width="93" height="76" viewBox="0 0 93 76" fill="none" xmlns="http://www.w3.org/2000/svg">
<path d="M41.6667 64.25H18.4667C13.0528 64.25 10.3459 64.25 8.2781 63.2962C6.45917 62.4576 4.98036 61.1188 4.05362 59.4725C3 57.6009 3 55.1504 3 50.25V17C3 12.0996 3 9.6493 4.05362 7.77759C4.98036 6.13114 6.45917 4.79257 8.2781 3.95371C10.3459 3 13.0528 3 18.4667 3H74.5333C79.9471 3 82.6543 3 84.722 3.95371C86.5408 4.79257 88.0198 6.13114 88.9463 7.77759C90 9.6493 90 12.0996 90 17V33.625M3 20.5H90M75.5 73V46.75M90 59.8785L61 59.875" stroke="#0376C4" stroke-width="4.47222" stroke-linecap="round" stroke-linejoin="round"/>
</svg>
