<svg width="47" height="43" viewBox="0 0 47 43" fill="none" xmlns="http://www.w3.org/2000/svg">
<path d="M28.0464 4.39243C21.6386 -1.46414 11.2137 -1.46414 4.8059 4.39243C-1.60197 10.249 -1.60197 19.7781 4.8059 25.6347C11.2137 31.4913 21.6386 31.4913 28.0464 25.6347C34.4542 19.7781 34.4542 10.249 28.0464 4.39243ZM25.7646 23.5492C20.6076 28.2618 12.2447 28.2618 7.08765 23.5483C1.93058 18.8349 1.93058 11.1914 7.08765 6.47888C12.2447 1.76544 20.6066 1.76544 25.7636 6.47888C30.9207 11.1923 30.9217 18.8349 25.7646 23.5492Z" fill="black" stroke="black" stroke-width="0.0039604"/>
<path d="M9.14875 9.24845C6.50894 12.3489 6.28917 16.6149 8.49044 19.9081C8.65922 20.1618 9.02115 20.2408 9.29775 20.0875C9.57336 19.9323 9.66076 19.6023 9.49198 19.3496C7.54375 16.4356 7.73798 12.6483 10.0737 9.9084C10.2738 9.67524 10.2277 9.3382 9.97162 9.15607C9.71669 8.97411 9.34784 9.01537 9.14875 9.24845Z" fill="black" stroke="black" stroke-width="0.0039604"/>
<path d="M44.8145 36.7965L32.8876 26.178C32.2352 25.597 31.1935 25.6042 30.549 26.1923L28.6576 27.9209C28.0142 28.5091 28.0072 29.4613 28.6439 30.0566L40.2608 40.9575C41.5508 42.3812 43.4568 42.4656 44.9292 41.1189C46.4036 39.774 46.3713 37.9755 44.8145 36.7965Z" fill="black" stroke="black" stroke-width="0.0039604"/>
</svg>
