<svg width="81" height="63" viewBox="0 0 81 63" fill="none" xmlns="http://www.w3.org/2000/svg">
<path d="M55.5 55.9286H78M78 23.3571H3M78 37.6071V16.0286C78 11.4682 78 9.18792 77.1825 7.44608C76.4636 5.91392 75.3161 4.66823 73.905 3.88753C72.3008 3 70.2004 3 66 3H15C10.7996 3 8.6994 3 7.09508 3.88753C5.68388 4.66819 4.53649 5.91388 3.81746 7.44608C3 9.18792 3 11.4682 3 16.0286V46.9714C3 51.5318 3 53.8122 3.81746 55.554C4.53649 57.0861 5.68384 58.3319 7.09508 59.1124C8.6994 60 10.7996 60 15 60H40.5" stroke="#0376C4" stroke-width="4.66667" stroke-linecap="round" stroke-linejoin="round"/>
</svg>
