<svg width="46" height="37" viewBox="0 0 46 37" fill="none" xmlns="http://www.w3.org/2000/svg">
<path d="M31 31.5278H43M43 13.9722H3M43 21.6528V10.0222C43 7.56422 43 6.3352 42.564 5.39638C42.1806 4.57056 41.5686 3.89915 40.816 3.47837C39.9604 3 38.8402 3 36.6 3H9.4C7.1598 3 6.03968 3 5.18404 3.47837C4.4314 3.89913 3.81946 4.57054 3.43598 5.39638C3 6.3352 3 7.56422 3 10.0222V26.7C3 29.158 3 30.3871 3.43598 31.3259C3.81946 32.1517 4.43138 32.8232 5.18404 33.2438C6.03968 33.7222 7.1598 33.7222 9.4 33.7222H23" stroke="#FF9933" stroke-width="4.66667" stroke-linecap="round" stroke-linejoin="round"/>
</svg>
