<svg width="576" height="464" viewBox="0 0 576 464" fill="none" xmlns="http://www.w3.org/2000/svg">
<g clip-path="url(#clip0_230_85)">
<path d="M0 0H576V464H0V0Z" fill="#FDFDFD"/>
<path d="M0 0H576V166.38L509.902 166.83L507.069 167.729L500.459 178.071L497.626 181.669L449.469 182.119L444.275 182.568L432.944 199.656L425.862 210.448H400.367L398.951 209.998L396.59 207.75L393.757 207.3L390.452 209.099H389.508L389.036 210.898V218.992L388.564 237.878L387.62 243.274L384.315 251.818L380.538 257.664L375.816 263.51L371.095 267.557L364.485 271.604L362.597 272.054L361.18 267.107L360.708 264.859L365.902 261.711L371.095 257.214L375.816 250.919L378.649 245.073L380.538 238.328L381.01 234.731V229.784L380.066 223.039L377.705 216.294L374.4 210.448L370.623 205.951L366.374 202.354L359.764 198.307L355.987 196.508L348.905 194.709L345.6 194.26H338.046L331.436 195.159L325.298 197.407L319.633 200.106L313.495 204.602L309.246 209.099L304.997 216.294L302.636 222.14L301.692 226.187L301.22 233.381L302.164 240.127L304.997 247.321L307.829 252.718L313.023 259.013L316.8 261.711L321.049 264.409L325.77 267.107L326.243 269.356L323.882 271.604L321.993 272.953L319.633 272.503L314.911 269.805L309.718 266.208L306.885 267.107L298.387 272.054L288.944 277H285.639L278.557 273.403L270.531 268.906L259.672 263.06L247.397 256.315L236.538 250.469L225.207 244.174L214.348 238.328L206.321 233.831L201.128 231.133L190.269 225.287L185.548 221.69L185.075 119.614L184.603 117.365L182.243 116.016L178.938 115.567L176.577 116.466L174.216 118.714H160.052L146.361 119.164L141.639 125.909L134.557 136.701L128.892 145.245L127.948 146.594H79.7902L80.2623 144.795L84.5115 138.5L84.9836 138.05H110.951L113.311 139.849L117.089 141.198L119.449 139.849H120.393L121.338 137.601L121.81 135.352L119.449 131.755L117.561 130.856L114.728 131.305L111.895 133.554L84.9836 134.003L82.1508 134.903L81.2066 137.151L77.9016 142.097L74.5967 146.594L72.7082 147.044H15.5803L11.8033 142.097L5.66557 132.205L1.41639 131.755H0V0Z" fill="#FDFDFD"/>
<path d="M286.583 56.3953L289.416 56.8538L294.61 59.6047L303.58 64.6482L314.911 71.0672L321.521 74.7352L330.492 79.7787L338.046 83.9051L346.072 88.4901L367.79 100.411L374.4 104.079L384.787 110.04L388.564 112.332L389.036 114.166V223.289L388.564 242.545L387.619 248.047L384.315 256.759L380.538 262.719L375.816 268.68L371.095 272.806L364.485 276.933L362.597 277.391L361.18 272.348L360.708 270.055L365.901 266.846L371.095 262.261L375.816 255.842L378.649 249.881L380.538 243.004L381.01 239.336V234.292L380.065 227.415L377.705 220.538L374.4 214.577L370.623 209.992L366.374 206.324L359.764 202.198L355.987 200.364L348.905 198.53L345.6 198.071H338.046L331.436 198.988L325.298 201.281L319.633 204.032L313.495 208.617L309.246 213.202L304.997 220.538L302.636 226.498L301.692 230.625L301.219 237.96L302.164 244.838L304.997 252.174L307.829 257.676L313.023 264.095L316.8 266.846L321.049 269.597L325.77 272.348L326.242 274.64L323.882 276.933L321.993 278.308L319.633 277.85L314.911 275.099L309.718 271.431L306.885 272.348L298.387 277.391L288.944 282.435H285.639L278.557 278.767L270.531 274.182L259.672 268.221L247.397 261.344L236.537 255.383L225.206 248.964L214.347 243.004L206.321 238.419L201.128 235.668L190.269 229.708L185.547 226.04L185.075 113.708L186.964 111.415L198.295 104.996L210.098 98.5771L226.151 89.4071L237.954 82.9881L249.285 76.5692L257.783 71.9842L267.698 66.4822L279.029 60.0632L286.583 56.3953Z" fill="#FEA33F"/>
<path d="M192.629 121.502L194.518 121.96L202.072 126.087L207.738 129.296L218.597 135.257L226.623 139.842L239.843 147.178L252.118 154.055L263.921 160.474L275.252 166.893L282.806 171.02L283.279 171.478L283.751 184.775V272.348L282.806 272.806L276.669 269.138L264.865 262.719L254.006 256.759L245.98 252.174L238.426 248.047L227.567 242.087L208.21 231.083L203.488 228.332L195.934 224.206L193.102 222.83L192.629 221.455V121.502Z" fill="#FDFDFD"/>
<path d="M338.046 197.613H345.6L353.154 198.988L358.348 200.822L364.957 204.949L370.151 209.075L373.928 213.202L377.705 219.621L380.066 225.581L381.01 229.708L381.482 234.293V239.336L380.066 247.131L377.705 253.091L374.872 258.135L369.679 264.095L364.013 268.68L361.18 270.055L362.597 276.016V289.312L361.18 294.814L358.82 298.941L354.571 303.526L348.905 306.277L343.712 307.652H338.99L333.325 305.818L329.075 303.526L324.826 299.399L321.993 293.897L321.049 289.771V279.684L322.466 277.391L325.298 275.557L325.771 272.806L317.744 268.221L313.967 265.012L311.607 262.72L307.357 257.676L303.58 250.34L301.22 242.546L300.748 237.044L301.22 230.625L302.636 225.581L304.997 219.621L308.774 213.202L313.967 207.7L319.633 203.573L327.187 199.905L333.797 198.071L338.046 197.613Z" fill="#FDFDFD"/>
<path d="M380.538 121.502H381.482V210.451L378.649 208.158L375.344 204.49L370.151 199.905L362.597 195.32L354.098 192.111L347.016 190.735H335.685L327.187 192.569L321.049 194.862L314.911 198.071L308.774 202.656L303.58 208.158L299.331 214.577L296.498 220.996L294.138 230.166L293.666 233.375V240.711L295.554 249.423L298.387 256.3L301.692 261.802L303.58 264.095L303.108 265.929L294.61 270.972L292.721 271.889L290.833 271.431V173.312L291.777 171.02L303.58 164.601L315.384 157.723L318.216 156.348L318.689 156.806L319.161 174.229L321.521 176.522L324.826 176.063L330.492 173.312L338.518 168.727L346.072 164.601L354.57 159.557L355.987 157.723L356.459 135.257L360.708 132.506L370.151 127.462L378.649 122.419L380.538 121.502Z" fill="#FDFDFD"/>
<path d="M222.846 99.9526L225.678 100.411L233.705 104.996L244.564 110.957L251.646 115.083L260.616 120.127L271.475 126.087L279.501 130.672L292.721 138.008L304.997 144.885L310.19 147.636L313.495 149.929V150.846L307.357 154.055L302.636 156.806L288 165.059L285.639 164.601L277.613 160.016L272.419 157.265L259.672 150.387L251.646 145.802L244.092 141.676L232.76 135.257L225.206 131.131L214.819 125.17L197.823 115.542V114.166L203.96 110.498L213.875 104.996L218.597 102.245L222.846 99.9526Z" fill="#FDFDFD"/>
<path d="M286.584 64.1897L288.944 64.6482L291.305 66.4822L299.331 70.6087L305.469 74.2767L313.967 78.8616L320.105 82.5296L325.298 85.2806L335.213 90.7826L359.764 104.538L364.957 107.289L369.679 110.039L377.705 114.166V115.083L368.262 120.126L357.875 126.087L353.626 128.379H351.266L349.377 127.004L344.184 124.253L339.462 121.502L334.269 118.751L325.77 114.166L317.744 109.581L310.19 105.455L293.666 96.2846L287.528 92.6166L279.029 88.0316L268.643 82.0711L264.866 79.7786L262.505 78.8616V77.4861L268.17 74.7352L277.141 69.6917L286.584 64.1897Z" fill="#FDFDFD"/>
<path d="M509.902 169.644H576V205.407H569.862L567.502 204.032L561.364 194.403L558.531 190.277H499.987L498.098 192.111L494.321 198.071L491.016 202.656L490.072 203.115H463.161L460.328 205.407L458.439 206.324H455.607L453.246 204.032L451.83 201.281L452.774 198.071L455.607 195.779L458.439 195.32L462.216 197.154L463.161 198.071H489.6L490.544 196.237L494.321 189.818L446.636 190.277L442.859 195.32L437.666 203.573L430.584 214.577L427.751 218.245L426.334 218.704L398.479 219.162L398.007 220.996L396.118 221.913H393.285L390.452 220.538L388.564 218.704V215.036L389.508 213.202L393.757 210.909L396.59 211.368L398.951 213.202V214.119H425.862L429.167 208.617L435.777 198.53L442.859 187.526L444.275 185.692L449.469 185.233L497.626 184.775L502.348 177.897L506.597 171.02L509.902 169.644Z" fill="#0376C4"/>
<path d="M178.938 117.375L183.187 118.292L185.075 119.668L185.548 123.794L184.603 126.087L181.77 127.921L177.521 128.379L175.633 127.462L174.689 125.628L166.19 125.17H149.193L147.305 127.004L143.056 133.423L136.918 143.051L131.252 151.763L129.836 153.597L127.948 154.055L76.4852 154.514L73.1803 159.099L68.9311 165.976L66.5705 169.644L60.4328 170.103H18.4131L0 169.644V134.34L1.41639 133.881L5.66557 134.34L9.44262 140.3L15.1082 149.012L15.5803 149.47H74.1246L77.4295 144.885L82.1508 137.549L84.9836 136.174L111.895 135.715L114.728 133.423L117.561 132.964L119.921 134.34L122.282 138.008L121.81 140.3L120.393 142.593L117.089 144.427L112.367 142.593L111.895 141.217H84.9836L80.2623 148.095L79.7902 149.47L127.948 149.012L133.613 139.842L139.751 130.672L144.472 123.336L146.361 121.043L165.246 120.585H174.216L177.049 117.834L178.938 117.375Z" fill="#0376C4"/>
<path d="M254.007 82.5295L256.367 82.988L260.616 85.739L268.171 89.8655L279.03 95.826L283.279 98.577L288.944 101.328L295.082 104.996L308.302 112.332L313.495 115.083L321.521 119.668L326.715 122.419L337.102 128.379L342.295 131.13L344.656 133.423L337.102 137.549L325.771 143.968L322.938 145.344L319.633 144.885L314.439 142.134L307.357 138.008L302.164 135.257L293.666 130.672L282.334 124.253L277.613 121.502L273.364 119.209L262.033 112.79L255.423 109.122L245.036 103.162L239.843 100.411L232.761 96.2845L231.816 95.3675L236.538 92.158L245.98 87.1145L254.007 82.5295Z" fill="#FDFDFD"/>
<path d="M330.492 247.13L334.741 247.589L337.574 249.423L338.046 250.34L338.518 266.387L338.99 267.304L343.239 267.763L344.656 268.68H347.016L349.377 268.221L352.682 269.597H357.875L361.18 270.972L362.124 273.265L362.597 279.225V289.312L361.18 294.814L358.82 298.941L354.57 303.526L348.905 306.277L343.711 307.652H338.99L333.324 305.818L329.075 303.526L324.826 299.399L321.993 293.897L321.049 289.771V279.684L322.465 277.391L325.298 275.557L325.77 274.64L326.243 252.632L328.603 248.047L330.492 247.13Z" fill="#FDFDFD"/>
<path d="M214.347 357.628H224.734L230.4 359.004L234.649 361.296L238.426 364.964L241.259 370.466L242.203 374.593V380.553L241.259 385.138L238.426 390.64L235.121 393.85L228.511 397.059L225.206 397.976H215.292L209.154 396.142L204.905 393.85L201.128 389.723L198.767 384.68L198.295 382.387V372.759L200.183 367.257L203.016 363.13L207.738 359.921L212.459 358.087L214.347 357.628Z" fill="#0376C4"/>
<path d="M481.574 117.834L484.407 118.292L485.823 119.209V120.126L487.712 120.585L515.095 121.043L517.928 125.17L524.066 134.798L527.843 140.759L532.092 147.178L533.98 149.47H566.085L570.807 142.593L573.167 140.759L576 140.3V154.055L568.918 154.514L565.141 159.099L563.725 160.474H448.525L445.22 155.889L439.082 146.261L432.472 136.174L429.639 132.047H402.728L400.367 134.34L397.062 134.798L394.23 132.964L392.813 131.13V127.004L394.702 124.711L397.062 123.794L400.839 124.253L402.728 126.545L431.056 127.004L432.944 128.838L435.777 133.881L441.443 142.593L448.525 153.597L449.469 155.889H563.253V154.055H531.62L527.371 147.178L521.705 138.466L514.623 127.462L513.207 125.628H487.239L484.407 127.921L480.157 128.379L477.797 127.004L476.38 124.711V121.043L477.797 119.209L481.574 117.834Z" fill="#0376C4"/>
<path d="M459.383 357.17L468.354 357.628L475.436 359.462L478.269 361.296L480.629 363.589L483.462 367.715L485.351 374.134V381.012L483.934 386.514L481.574 391.099L476.852 395.225L470.715 397.518L468.354 397.976H446.636L446.164 397.518V358.087L446.636 357.628L459.383 357.17Z" fill="#0376C4"/>
<path d="M10.859 178.814H125.587L127.475 181.107L133.141 190.277L144.472 207.7H169.967L172.8 205.407L174.216 204.949H177.521L180.354 206.783L181.298 208.617V211.826L178.938 214.577L177.049 215.494H174.216L169.967 212.743L143.056 212.285L139.751 207.7L133.141 197.613L127.003 187.984L124.171 183.858L23.1344 183.399L11.3311 182.941L10.859 185.233H42.4918L48.6295 195.32L59.9607 212.743L60.9049 214.119H86.4L89.2328 211.826L93.482 210.909L96.3148 212.285L97.7312 215.036V217.787L94.4262 221.455H89.7049L86.4 218.704L59.0164 218.245L55.7115 213.66L49.5738 204.032L42.4918 193.028L40.6033 190.277H8.02623L5.19344 193.486L0.944262 198.988H0V185.233L5.66557 184.775L9.91476 179.273L10.859 178.814Z" fill="#0376C4"/>
<path d="M319.161 357.628H331.436L331.908 358.087V374.134L334.269 371.842L339.462 365.423L344.656 359.462L346.544 357.628H362.125L361.18 359.462L356.931 364.047L352.682 369.091L348.905 372.759L348.433 375.051L351.266 379.178L357.403 389.265L362.597 397.059V397.976L352.682 398.435L347.961 397.976L346.072 395.684L339.462 384.221L337.574 384.68L333.325 387.889L331.908 388.348V397.518L331.436 397.976H319.161L318.688 397.518V358.087L319.161 357.628Z" fill="#0376C4"/>
<path d="M101.98 357.628H112.839L119.449 359.462L123.698 362.672L126.059 366.798L126.531 368.632L126.059 369.091L120.394 369.549H115.672L113.312 368.632L111.895 366.34L109.535 365.423H105.757L103.869 366.34L103.397 368.174L104.813 369.549L115.672 372.3L120.866 374.134L124.643 377.344L126.531 379.636L127.476 382.846L127.003 387.431L125.115 391.557L121.81 394.767L117.089 397.059L113.784 397.976H103.397L98.2034 396.601L93.4821 394.308L90.1771 390.182L88.7607 386.055V383.763L89.2329 383.304H100.092L101.508 384.68L102.925 387.431L107.174 388.348L111.895 387.889L113.312 386.514L112.839 385.138L109.535 383.763L98.6755 381.012L94.4263 378.719L92.0657 376.885L89.705 372.3V368.174L91.1214 364.047L93.4821 361.296L99.1476 358.545L101.98 357.628Z" fill="#0376C4"/>
<path d="M274.78 357.628H284.695L290.833 359.462L295.082 362.213L297.915 365.881L300.275 371.842V374.134H288L286.111 370.008L283.751 367.715L282.334 367.257H277.141L274.308 369.549L272.892 372.759L272.42 378.719L273.364 384.221L275.252 386.972L277.613 388.348H282.807L285.639 386.514L287.056 384.68L288 381.47H299.803L300.275 382.387L299.331 386.514L297.443 390.64L294.61 393.85L290.833 396.142L285.167 397.976H275.252L269.587 396.142L265.338 393.391L262.033 389.723L259.672 384.221L259.2 381.929V373.217L261.088 366.798L264.393 362.672L268.17 359.921L272.892 358.087L274.78 357.628Z" fill="#0376C4"/>
<path d="M509.902 174.229H576V201.281L575.528 201.739H570.806L567.029 196.696L563.252 190.277L560.892 186.609V185.692L503.292 185.233L502.82 184.316L508.485 175.605L509.902 174.229Z" fill="#FDFDFD"/>
<path d="M0.944262 137.549L3.30492 138.008L6.13771 141.676L11.8033 150.846L13.2197 152.68V153.597H70.8197L71.7639 154.514L66.5705 162.308L64.2098 165.518H0V138.008L0.944262 137.549Z" fill="#FDFDFD"/>
<path d="M142.111 357.628H181.77V368.632L169.023 369.091L168.551 369.549L168.079 397.976H155.803L155.331 397.518V370.466L154.859 369.091L142.111 368.632L141.639 367.715V358.087L142.111 357.628Z" fill="#0376C4"/>
<path d="M330.492 247.13L334.741 247.589L337.574 249.423L338.046 250.34L338.518 266.387L338.99 267.304L343.239 267.763L344.656 268.68H347.016L349.377 268.221L352.682 269.597H357.875L361.18 270.972L362.124 273.265L362.597 279.225V289.312L361.18 294.814L358.82 298.941L354.57 303.526L348.905 306.277L343.711 307.652H338.99L333.324 305.818L329.075 303.526L324.826 299.399L321.993 293.897L321.049 289.771V279.684L322.465 277.391L325.298 275.557L325.77 274.64L326.243 252.632L328.603 248.047L330.492 247.13ZM331.436 251.257L330.492 252.632V275.099L328.603 279.684L324.826 280.601L324.354 285.186L324.826 292.063L327.659 297.565L331.436 301.233L335.213 303.067L339.934 304.443H343.239L349.849 302.15L353.626 299.399L356.459 296.19L358.347 292.063L358.82 289.312V280.142L358.347 274.182L357.875 273.723L354.57 274.182H350.321L348.905 271.889L347.488 272.348V273.265L345.128 273.723H342.295L341.823 271.431L338.99 270.972L337.574 272.806H334.269V253.091L333.324 251.257H331.436Z" fill="#0376C4"/>
<path d="M412.643 357.628H424.446L424.918 358.087V397.518L424.446 397.976H412.643L412.17 397.518V358.087L412.643 357.628Z" fill="#0376C4"/>
<path d="M347.961 139.842H348.905V154.514L345.128 156.806L337.102 161.391L331.908 164.142L327.187 166.893L326.243 166.435V152.221L328.603 150.387L337.102 145.802L347.016 140.3L347.961 139.842Z" fill="#FDFDFD"/>
<path d="M217.18 366.798H222.374L226.151 368.632L228.511 371.842L228.983 373.676V381.012L227.567 384.68L224.734 387.889L222.374 388.806H217.18L213.875 386.972L211.987 384.221L211.042 380.553V374.593L212.459 370.466L216.236 367.257L217.18 366.798Z" fill="#FDFDFD"/>
<path d="M331.436 251.257L333.797 251.715L334.269 253.091V272.806H337.574L338.99 270.972L341.823 271.431L342.295 273.723H345.6L347.488 273.265L347.961 271.889L349.377 272.348L350.321 274.182H354.57L357.875 273.723L358.347 274.182V279.684L354.57 281.059L347.488 282.435H336.157L328.131 281.059L329.075 278.767L330.492 275.099V252.632L331.436 251.257Z" fill="#FFA33F"/>
<path d="M361.652 216.411H364.485L366.374 217.787V220.538L364.485 223.289L358.82 229.249L352.21 236.127L338.518 249.423L336.157 248.964L332.852 247.589L330.964 246.672L334.269 243.004L338.046 239.336L338.518 238.419H339.462L340.406 236.585L349.849 227.415L353.154 223.747L359.292 217.787L361.652 216.411Z" fill="#FFA33F"/>
<path d="M459.384 366.798H465.521L469.299 368.174L471.187 370.466L472.131 375.051V380.553L471.187 384.221L469.771 386.514L468.354 387.889L465.049 388.806H459.856L458.912 387.889V367.257L459.384 366.798Z" fill="#FDFDFD"/>
<path d="M202.072 209.534L204.905 209.992L211.043 213.202L221.902 219.162L224.734 220.996L226.623 223.289L226.151 226.498L224.734 227.874L221.429 227.415L213.875 223.747L208.682 220.996L202.072 216.87L199.711 214.577L200.184 211.826L202.072 209.534Z" fill="#FFA33F"/>
<path d="M319.161 240.253L321.521 240.711L324.354 243.004L327.659 246.672L329.075 248.047L326.715 252.632L326.243 254.925L324.354 253.549L320.577 254.008L313.495 250.798V248.506L314.439 247.589H317.272L315.856 245.755V243.004L318.216 240.711L319.161 240.253Z" fill="#FEA341"/>
<path d="M331.436 251.257L333.797 251.715L334.269 253.091V272.806H337.574L338.99 270.972L341.823 271.431L342.295 273.723H345.6L347.489 273.265L347.961 271.889L349.377 272.348L350.321 274.64L340.407 275.099L330.492 274.182V252.632L331.436 251.257Z" fill="#FDFDFD"/>
<path d="M342.767 258.134L347.016 258.593L351.738 260.885L351.266 263.178L350.321 264.095L347.961 263.636L345.6 262.261L342.295 261.344L341.823 259.051L342.767 258.134Z" fill="#0376C4"/>
<path d="M320.577 257.676L322.466 258.134L322.938 258.593V260.885L317.744 263.178L315.384 264.095L313.495 263.636L312.551 261.344L319.633 258.134L320.577 257.676Z" fill="#0376C4"/>
<path d="M314.439 247.589L317.744 248.047L321.993 250.798L323.41 252.174L322.466 254.008L320.105 253.549L315.384 251.715L313.495 250.798V248.506L314.439 247.589Z" fill="#0376C4"/>
<path d="M348.905 248.047H351.266L351.738 250.34L348.905 252.174L345.128 253.549H342.767L341.823 252.632L342.295 250.798L348.905 248.047Z" fill="#0376C4"/>
<path d="M575.528 143.968H576V149.929L575.528 150.387H572.695L571.751 149.012L573.167 146.261L575.528 143.968Z" fill="#FDFDFD"/>
<path d="M331.436 251.257L333.797 251.715L334.269 254.925L333.797 255.383H330.492V252.632L331.436 251.257Z" fill="#FFA33F"/>
<path d="M0 189.36L2.36066 189.818L0.944262 192.569L0 193.028V189.36Z" fill="#FDFDFD"/>
</g>
<defs>
<clipPath id="clip0_230_85">
<rect width="576" height="464" fill="white"/>
</clipPath>
</defs>
</svg>
